<svg width="150" height="150" viewBox="0 0 150 150" fill="none" xmlns="http://www.w3.org/2000/svg">
<path d="M86.914 103.336H64.382L60.77 114H45.376L67.22 53.628H84.248L106.092 114H90.526L86.914 103.336ZM83.13 91.984L75.648 69.882L68.252 91.984H83.13Z" fill="#3584E4"/>
<path d="M18.75 56.2505C18.75 52.9353 20.067 49.7559 22.4112 47.4117C24.7554 45.0674 27.9348 43.7505 31.25 43.7505H118.75C122.065 43.7505 125.245 45.0674 127.589 47.4117C129.933 49.7559 131.25 52.9353 131.25 56.2505V112.5C131.25 115.816 129.933 118.995 127.589 121.339C125.245 123.684 122.065 125 118.75 125H31.25C27.9348 125 24.7554 123.684 22.4112 121.339C20.067 118.995 18.75 115.816 18.75 112.5V56.2505Z" stroke="#3584E4" stroke-width="6" stroke-linecap="round" stroke-linejoin="round"/>
<path d="M100 18.75L75 43.75L50 18.75" stroke="#3584E4" stroke-width="6" stroke-linecap="round" stroke-linejoin="round"/>
</svg>
